# xmcd CD database file generated by OrangeCD 6.1
#
# Track frame offsets:
#	150
#	27082
#	51242
#	76932
#	103280
#	124127
#	153990
#	187510
#	209942
#	235122
#	263090
#
# Disc length: 3638 seconds
#
# Revision: 1
# Processed by: cddbd v1.5.2PL0 Copyright (c) Steve Scherf et al.
# Submitted via: OrangeCD 6.1
#
DISCID=8e0e340b
DTITLE=Floyd McDaniel With Dave Spector and The Bluebirds - West Side Baby
DYEAR=1997
DGENRE=Blues
TTITLE0=St. Louis Blues
TTITLE1=West Side Baby
TTITLE2=Mean Old World
TTITLE3=Route 66
TTITLE4=Evenin'
TTITLE5=Red Top
TTITLE6=Backwater Blues
TTITLE7=Everyday I Have The Blues
TTITLE8=Every Time
TTITLE9=Sweet Home Chicago
TTITLE10=Hold It
EXTD=
EXTT0=
EXTT1=
EXTT2=
EXTT3=
EXTT4=
EXTT5=
EXTT6=
EXTT7=
EXTT8=
EXTT9=
EXTT10=
PLAYORDER=
